<mxfile host="app.diagrams.net" modified="2023-06-20T04:24:38.404Z" agent="Mozilla/5.0 (Windows NT 10.0; Win64; x64) AppleWebKit/537.36 (KHTML, like Gecko) Chrome/114.0.0.0 Safari/537.36" version="21.3.7" etag="eOU-on-OIdEkVl1LAT4C" type="github">
  <diagram name="Page-1" id="_D7MuU-bTy51R5B-ypfL">
    <mxGraphModel>
      <root>
        <mxCell id="0" />
        <mxCell id="1" parent="0" />
      </root>
    </mxGraphModel>
  </diagram>
</mxfile>
